<svg xmlns="http://www.w3.org/2000/svg" viewBox="0 0 640 400" role="img" aria-label="Hypothesis test abstract preview">
  <rect width="640" height="400" rx="28" fill="#ffffff"/>
  <g transform="translate(88 76)">
    <path d="M40 244h456" stroke="#072E33" stroke-width="10" stroke-linecap="round"/>
    <path d="M70 240C128 238 154 206 184 150C214 94 256 66 304 66C352 66 394 94 424 150C454 206 480 238 538 240" fill="none" stroke="#10b981" stroke-width="13" stroke-linecap="round"/>
    <path d="M92 236C124 230 142 214 162 184" fill="none" stroke="#dc2626" stroke-width="14" stroke-linecap="round"/>
    <path d="M446 184C466 214 484 230 516 236" fill="none" stroke="#dc2626" stroke-width="14" stroke-linecap="round"/>
    <path d="M304 58v196" stroke="#065f46" stroke-width="8" stroke-linecap="round" stroke-dasharray="2 18"/>
    <circle cx="392" cy="130" r="18" fill="#34d399"/>
    <path d="M374 130h-96" stroke="#34d399" stroke-width="8" stroke-linecap="round"/>
    <path d="M278 130l20-20M278 130l20 20" stroke="#34d399" stroke-width="8" stroke-linecap="round"/>
  </g>
</svg>
