<svg xmlns="http://www.w3.org/2000/svg" viewBox="0 0 640 400" role="img" aria-label="Dashboard abstract preview">
  <rect width="640" height="400" rx="28" fill="#ffffff"/>
  <rect x="1.5" y="1.5" width="637" height="397" rx="26.5" fill="none" stroke="#d1fae5" stroke-width="3"/>
  <g transform="translate(86 74)">
    <rect x="0" y="0" width="210" height="104" rx="18" fill="#ecfdf5" stroke="#10b981" stroke-width="7"/>
    <rect x="248" y="0" width="220" height="104" rx="18" fill="#ecfdf5" stroke="#34d399" stroke-width="7"/>
    <rect x="0" y="142" width="468" height="114" rx="18" fill="#ffffff" stroke="#d1fae5" stroke-width="7"/>
    <path d="M36 70h52M36 36h118" stroke="#065f46" stroke-width="12" stroke-linecap="round"/>
    <path d="M284 70h54M284 36h132" stroke="#10b981" stroke-width="12" stroke-linecap="round"/>
    <path d="M42 220c54-44 96-18 142-54c52-40 96-22 146 20c34 28 62 26 96-8" fill="none" stroke="#065f46" stroke-width="11" stroke-linecap="round"/>
    <circle cx="42" cy="220" r="11" fill="#10b981"/>
    <circle cx="184" cy="166" r="11" fill="#34d399"/>
    <circle cx="330" cy="186" r="11" fill="#10b981"/>
    <circle cx="426" cy="178" r="11" fill="#065f46"/>
  </g>
</svg>
