<svg xmlns="http://www.w3.org/2000/svg" viewBox="0 0 640 400" role="img" aria-label="Dashboard abstract preview">
  <rect width="640" height="400" rx="28" fill="#ffffff"/>
  <g transform="translate(106 82)">
    <rect x="0" y="0" width="188" height="92" rx="18" fill="#ecfdf5" stroke="#10b981" stroke-width="7"/>
    <rect x="242" y="0" width="188" height="92" rx="18" fill="#ecfdf5" stroke="#34d399" stroke-width="7"/>
    <rect x="0" y="138" width="430" height="106" rx="18" fill="#ffffff" stroke="#d1fae5" stroke-width="7"/>
    <path d="M34 62h48M34 34h106" stroke="#065f46" stroke-width="11" stroke-linecap="round"/>
    <path d="M276 62h46M276 34h104" stroke="#10b981" stroke-width="11" stroke-linecap="round"/>
    <path d="M42 210c54-38 94-20 138-50c52-34 90-22 136 14c32 24 58 22 88-6" fill="none" stroke="#065f46" stroke-width="10" stroke-linecap="round"/>
    <circle cx="42" cy="210" r="10" fill="#10b981"/>
    <circle cx="180" cy="160" r="10" fill="#34d399"/>
    <circle cx="316" cy="174" r="10" fill="#10b981"/>
    <circle cx="404" cy="168" r="10" fill="#065f46"/>
  </g>
</svg>
