<svg xmlns="http://www.w3.org/2000/svg" viewBox="0 0 640 400" role="img" aria-label="Kirchhoff circuit abstract preview">
  <rect width="640" height="400" rx="28" fill="#ffffff"/>
  <g transform="translate(112 82)" fill="none" stroke-linecap="round" stroke-linejoin="round">
    <path d="M44 70h112M268 70h112M44 70v150h336V70" stroke="#072E33" stroke-width="10"/>
    <path d="M156 70l24-30l44 60l44-60l24 30" stroke="#065f46" stroke-width="9"/>
    <circle cx="212" cy="152" r="17" fill="#10b981" stroke="#072E33" stroke-width="7"/>
    <path d="M212 172v86" stroke="#072E33" stroke-width="10"/>
    <path d="M212 176l-24 22l48 42l-48 42l24 22" stroke="#065f46" stroke-width="9"/>
    <path d="M86 152c32 24 64 24 96 0" stroke="#2563eb" stroke-width="11"/>
    <path d="M166 130l26 26l-36 10" stroke="#2563eb" stroke-width="11"/>
    <path d="M282 154c34-20 68-18 102 6" stroke="#dc2626" stroke-width="11"/>
    <path d="M366 132l26 34l-40-6" stroke="#dc2626" stroke-width="11"/>
  </g>
</svg>
